<?xml version="1.0" standalone="no"?>
<!DOCTYPE svg PUBLIC "-//W3C//DTD SVG 20010904//EN"
 "http://www.w3.org/TR/2001/REC-SVG-20010904/DTD/svg10.dtd">
<svg version="1.0" xmlns="http://www.w3.org/2000/svg"
 width="1280.000000pt" height="1250.000000pt" viewBox="0 0 1280.000000 1250.000000"
 preserveAspectRatio="xMidYMid meet">
<metadata>
Created by potrace 1.15, written by Peter Selinger 2001-2017
</metadata>
<g transform="translate(0.000000,1250.000000) scale(0.100000,-0.100000)"
fill="#870000" stroke="none">
<path d="M1709 12479 c-7 -4 -51 -24 -97 -45 -53 -24 -91 -48 -104 -67 -11
-15 -45 -39 -75 -53 -87 -38 -168 -102 -302 -235 -167 -167 -321 -379 -518
-708 -21 -35 -45 -75 -54 -90 -45 -74 -175 -327 -229 -446 -80 -176 -210 -548
-210 -603 0 -12 -4 -30 -9 -40 -11 -21 -46 -179 -62 -282 -7 -41 -14 -86 -17
-100 -4 -24 -11 -80 -16 -148 -2 -17 -6 -35 -9 -39 -4 -3 -7 -68 -7 -143 0
-155 18 -280 56 -385 22 -62 24 -74 13 -107 -11 -33 -9 -43 21 -115 59 -141
227 -596 263 -713 185 -592 318 -1139 391 -1601 47 -297 115 -900 141 -1249
74 -1008 96 -1694 94 -3050 -1 -899 -9 -1287 -29 -1539 -6 -80 -9 -154 -6
-165 8 -32 59 -47 172 -53 112 -6 267 12 284 32 17 20 1 338 -16 324 -35 -29
-37 15 -30 716 6 689 9 861 26 1720 8 361 6 702 -5 1375 -18 1101 -44 2211
-53 2345 -9 121 4 218 40 297 53 114 111 162 208 172 25 3 72 8 105 12 34 3
101 1 150 -5 106 -14 210 -61 415 -188 352 -219 641 -487 987 -918 76 -94 239
-311 275 -365 10 -14 32 -45 49 -70 71 -100 208 -310 249 -380 24 -41 53 -91
65 -110 13 -19 40 -69 62 -110 22 -41 56 -102 74 -135 55 -96 229 -450 324
-660 49 -110 59 -130 87 -175 15 -25 127 -270 249 -545 209 -473 231 -528 399
-1011 159 -455 201 -563 388 -995 143 -331 275 -615 416 -897 181 -363 218
-429 299 -538 89 -121 96 -128 189 -184 77 -47 130 -69 255 -108 150 -47 169
-51 358 -66 142 -12 316 -16 598 -16 l397 0 633 90 c503 72 687 102 902 150
149 32 442 93 653 135 335 67 402 83 535 132 84 30 265 95 402 143 138 48 322
115 410 148 192 74 657 305 690 344 21 25 45 133 45 206 0 101 112 439 306
924 63 158 142 371 176 475 61 188 61 188 65 328 4 106 0 173 -16 277 -19 130
-23 144 -78 250 -49 98 -70 127 -155 214 -116 120 -212 181 -478 303 -96 44
-209 98 -250 119 -107 57 -523 229 -740 307 -213 76 -429 127 -770 181 -252
40 -439 57 -550 50 -267 -17 -781 -27 -911 -18 -168 12 -384 63 -564 132 -60
23 -137 51 -170 63 -119 41 -422 203 -562 300 -466 324 -851 718 -1261 1291
-51 71 -114 155 -140 188 -87 110 -805 1180 -891 1328 -18 30 -49 81 -69 112
-20 32 -66 104 -101 160 -35 57 -74 119 -86 138 -12 19 -35 56 -51 82 -55 90
-237 363 -309 463 -39 55 -98 138 -130 185 -32 47 -91 127 -129 179 -39 51
-78 103 -86 115 -35 49 -208 276 -259 340 -154 191 -205 254 -311 377 -158
184 -193 226 -320 385 -60 76 -134 168 -163 204 -28 35 -65 82 -80 103 -16 22
-64 76 -108 121 -43 45 -113 130 -156 187 -342 462 -480 632 -748 925 -5 6
-32 37 -59 70 -60 70 -196 207 -228 228 -29 18 -119 35 -139 25z"/>
</g>
</svg>
