<?xml version="1.0" standalone="no"?>
<!DOCTYPE svg PUBLIC "-//W3C//DTD SVG 20010904//EN"
 "http://www.w3.org/TR/2001/REC-SVG-20010904/DTD/svg10.dtd">
<svg version="1.0" xmlns="http://www.w3.org/2000/svg"
 width="1165.000000pt" height="1280.000000pt" viewBox="0 0 1165.000000 1280.000000"
 preserveAspectRatio="xMidYMid meet">
<metadata>
Created by potrace 1.15, written by Peter Selinger 2001-2017
</metadata>
<g transform="translate(0.000000,1280.000000) scale(0.100000,-0.100000)"
fill="#000000" stroke="none">
<path fill="#870000" d="M2045 12788 c25 -69 498 -1913 513 -2003 143 -830 217 -1280 296
-1800 l95 -620 12 -745 12 -745 -56 -220 c-67 -264 -107 -477 -137 -720 -17
-144 -34 -223 -81 -394 -32 -117 -68 -255 -80 -305 -12 -50 -50 -206 -85 -346
-34 -140 -101 -426 -147 -635 -104 -464 -204 -798 -265 -877 -32 -43 -40 -49
-65 -44 -24 5 -40 -4 -101 -53 l-73 -60 -155 -29 c-119 -23 -190 -44 -309 -90
-85 -33 -206 -76 -269 -96 -216 -68 -340 -118 -428 -173 -48 -30 -130 -80
-182 -111 -118 -70 -181 -128 -211 -195 -21 -46 -24 -70 -27 -218 -4 -197 -4
-198 126 -634 50 -165 101 -343 115 -396 28 -105 233 -589 277 -654 49 -71
223 -231 286 -263 60 -30 248 -101 404 -152 127 -41 446 -84 575 -77 204 12
619 98 1025 213 l195 56 156 99 156 99 38 82 c91 200 95 211 130 458 82 573
117 768 191 1084 l76 321 132 285 c121 262 145 306 301 548 251 387 453 626
738 870 l38 32 132 0 c132 0 133 0 186 -32 48 -30 56 -41 85 -108 l33 -75 33
-628 c23 -410 31 -633 25 -641 -135 -188 -198 -272 -242 -319 l-53 -58 0 -97
c0 -81 5 -111 32 -195 31 -95 37 -104 146 -234 62 -75 117 -144 123 -154 6
-11 9 -143 9 -325 -1 -168 1 -308 3 -310 5 -5 289 34 295 41 2 2 4 52 3 110
-1 58 2 105 6 104 4 0 105 -102 223 -225 183 -191 236 -240 353 -325 136 -100
141 -102 259 -135 l120 -34 272 24 271 24 225 75 c236 78 349 125 670 276 313
148 364 180 546 345 242 217 309 327 334 551 21 187 8 383 -41 635 -17 85 -77
380 -134 655 -57 275 -109 545 -115 600 -5 55 -13 201 -16 325 -8 264 -11 238
110 805 l84 390 92 210 c92 210 159 344 183 363 6 5 27 13 45 17 89 19 199
-137 503 -712 120 -227 237 -449 259 -494 76 -151 611 -1342 685 -1524 116
-288 138 -335 154 -330 7 3 73 49 147 103 l133 97 1 66 c0 65 -9 89 -441 1130
-430 1035 -443 1070 -506 1294 -118 423 -203 813 -228 1048 -9 78 -25 201 -36
272 -12 72 -24 209 -29 305 -7 156 -11 184 -37 260 -24 68 -36 89 -61 105 -17
11 -34 32 -37 46 -3 14 -19 39 -35 54 -16 15 -27 31 -25 35 3 4 -17 25 -43 45
-26 21 -76 66 -112 100 -71 68 -284 205 -408 261 -42 20 -178 81 -302 136
-124 54 -277 127 -340 161 -63 33 -144 75 -180 93 -175 87 -520 440 -724 741
-143 212 -218 366 -644 1310 -490 1085 -656 1468 -805 1859 l-153 399 -2127 3
c-1700 2 -2125 0 -2122 -10z m3171 -3133 c158 -269 317 -548 352 -620 35 -71
119 -236 187 -365 144 -272 231 -465 375 -820 56 -140 122 -298 145 -350 79
-177 163 -456 171 -570 18 -239 46 -454 149 -1150 l117 -785 -6 -665 c-3 -366
-9 -686 -12 -713 -6 -44 -10 -49 -55 -73 -38 -21 -52 -36 -68 -74 -18 -42 -45
-67 -246 -225 -125 -97 -228 -175 -230 -173 -6 7 44 751 55 805 74 368 149
705 181 823 118 420 142 497 188 589 64 129 80 238 57 382 -16 96 -49 208 -80
268 -30 58 -109 176 -126 188 -10 7 -36 43 -58 81 -86 144 -405 460 -563 556
-41 25 -113 78 -160 119 -48 41 -99 79 -115 84 -33 12 -27 -7 -269 833 -110
386 -135 484 -144 575 -23 227 -71 873 -71 957 0 49 -15 222 -34 385 -45 388
-50 450 -38 438 5 -5 139 -230 298 -500z"/>
</g>
</svg>
